<svg width="110" height="125" viewBox="0 0 110 125" fill="none" xmlns="http://www.w3.org/2000/svg">
<path d="M40.6762 102.812C38.1953 107.722 33.8832 111.459 28.6707 113.217C23.4581 114.975 17.7634 114.613 12.8156 112.208C10.349 111.077 8.13166 109.467 6.29257 107.471C4.45347 105.476 3.02929 103.135 2.10259 100.584C1.17589 98.0335 0.765099 95.3242 0.894329 92.6135C1.02356 89.9028 1.69019 87.2449 2.85533 84.794C5.33626 79.8842 9.6484 76.1469 14.8609 74.3889C20.0734 72.6309 25.7682 72.9931 30.716 75.3975C33.1848 76.5263 35.4043 78.1352 37.2452 80.1303C39.086 82.1254 40.5114 84.4669 41.4385 87.0183C42.3655 89.5698 42.7754 92.2802 42.6446 94.9917C42.5137 97.7031 41.8446 100.361 40.6762 102.812Z" fill="#FCB2B1"/>
<path d="M40.9063 95.3634C38.933 95.7627 33.4594 74.6206 32.2849 48.1459C31.1103 21.6712 31.0634 0.670009 32.9427 0.458588C34.822 0.247166 38.4631 21.6007 39.5437 47.8405C40.6243 74.0803 42.8796 95.011 40.9063 95.3634Z" fill="#FCB2B1"/>
<path d="M100.015 10.8428C100.813 12.3227 85.5675 20.5212 64.4254 19.1117C55.3797 18.7016 46.6131 15.8525 39.0547 10.8662C33.2523 6.82573 31.5845 2.47984 32.3127 2.057C33.0409 1.63416 36.0478 4.12426 41.7092 6.56736C49.0652 9.73413 56.9219 11.579 64.9186 12.0173C83.8526 13.3798 99.3099 8.68155 100.015 10.8428Z" fill="#FCB2B1"/>
<path d="M107.741 113.218C105.265 118.133 100.953 121.874 95.7388 123.632C90.5245 125.391 84.8273 125.026 79.8806 122.615C77.4169 121.483 75.2024 119.874 73.3653 117.88C71.5282 115.887 70.1051 113.548 69.1786 111C68.2521 108.452 67.8406 105.746 67.9679 103.038C68.0952 100.33 68.7589 97.6738 69.9203 95.2241C72.4013 90.3082 76.7176 86.5665 81.9357 84.8081C87.1538 83.0497 92.8543 83.4159 97.8045 85.8275C100.266 86.9612 102.478 88.572 104.313 90.5667C106.148 92.5614 107.568 94.9004 108.493 97.448C109.417 99.9957 109.826 102.701 109.697 105.408C109.568 108.116 108.903 110.77 107.741 113.218V113.218Z" fill="#FCB2B1"/>
<path d="M108 105.77C106.027 106.169 100.53 85.0272 99.3553 58.5526C98.1807 32.0779 98.1336 11.0767 100.013 10.8418C101.892 10.6068 105.533 31.9839 106.614 58.2472C107.695 84.5105 109.95 105.394 108 105.77Z" fill="#FCB2B1"/>
<path d="M101.351 24.7962C102.432 26.3466 88.3842 35.1088 68.4635 34.4746C48.5429 33.8403 34.918 24.4203 36.0456 22.9404C36.9852 21.0845 50.7511 27.0043 68.6045 27.3567C86.4579 27.7091 100.412 22.8934 101.351 24.7962Z" fill="#FCB2B1"/>
</svg>
