<svg width="136" height="142" viewBox="0 0 136 142" fill="none" xmlns="http://www.w3.org/2000/svg">
<path d="M34.019 95.4843C29.3146 98.6554 23.561 99.8721 17.9755 98.8768C12.39 97.8816 7.41076 94.7526 4.09112 90.1517C2.48719 87.8899 1.35412 85.3287 0.759234 82.6205C0.164348 79.9122 0.119774 77.112 0.628131 74.3861C1.13649 71.6603 2.18741 69.0644 3.71851 66.7526C5.24962 64.4408 7.22969 62.4603 9.5411 60.9286C14.2427 57.755 19.9944 56.5346 25.5796 57.5254C31.1649 58.5162 36.1458 61.6405 39.469 66.2376C41.0735 68.5013 42.207 71.0643 42.8021 73.7744C43.3973 76.4846 43.4421 79.2866 42.9338 82.0144C42.4255 84.7421 41.3745 87.34 39.8431 89.6538C38.3117 91.9677 36.3312 93.9504 34.019 95.4843V95.4843Z" fill="#FCB2B1"/>
<path d="M38.1315 89.0009C36.1582 88.3901 42.3129 66.9191 55.1392 42.8405C67.9654 18.7619 78.8889 0.0628445 80.7212 0.791074C82.5535 1.5193 74.5665 22.3091 61.9281 46.1058C49.2898 69.9025 40.0813 89.6351 38.1315 89.0009Z" fill="#FCB2B1"/>
<path d="M135.267 43.0042C135.267 44.7191 117.249 44.4842 99.067 32.8325C91.2111 28.0764 84.8341 21.2276 80.6498 13.0528C77.596 6.59273 78.3007 1.91797 79.2404 1.91797C80.18 1.91797 81.5895 5.5826 85.2306 10.5158C90.2117 16.9552 96.2964 22.4593 103.201 26.7718C119.551 37.3193 135.854 40.7726 135.267 43.0042Z" fill="#FCB2B1"/>
<path d="M88.6605 137.697C83.9589 140.871 78.2072 142.091 72.622 141.101C67.0367 140.11 62.0558 136.985 58.7326 132.388C57.1206 130.123 55.981 127.557 55.3817 124.842C54.7823 122.127 54.7355 119.319 55.2441 116.586C55.7526 113.852 56.8061 111.249 58.3417 108.931C59.8773 106.614 61.8638 104.629 64.1826 103.095C68.8834 99.9249 74.6332 98.7089 80.2148 99.7042C85.7965 100.7 90.7716 103.828 94.087 108.427C95.6996 110.689 96.8403 113.253 97.4411 115.965C98.042 118.677 98.0906 121.482 97.5843 124.214C97.0779 126.945 96.0268 129.547 94.4937 131.863C92.9606 134.18 90.9768 136.164 88.6605 137.697V137.697Z" fill="#FCB2B1"/>
<path d="M92.7721 131.284C90.7988 130.673 96.9535 109.178 109.78 85.0999C122.606 61.0214 133.576 42.3693 135.362 43.074C137.147 43.7788 129.207 64.592 116.428 88.4122C103.649 112.232 94.7219 131.848 92.7721 131.284Z" fill="#FCB2B1"/>
<path d="M129.207 56.1143C129.372 57.9937 112.199 58.8863 94.7454 48.5501C77.2913 38.214 69.9621 23.0621 71.8414 22.2869C73.6737 21.1123 82.8823 33.1399 98.6919 42.231C114.502 51.3221 129.419 53.9062 129.207 56.1143Z" fill="#FCB2B1"/>
</svg>
