<svg width="45" height="73" viewBox="0 0 45 73" fill="none" xmlns="http://www.w3.org/2000/svg">
<path d="M44.2531 57.6035C44.7296 59.0513 44.9127 60.5796 44.7916 62.099C44.6705 63.6184 44.2475 65.0984 43.5476 66.4524C42.8476 67.8064 41.8846 69.0072 40.715 69.9846C39.5454 70.962 38.1927 71.6963 36.7359 72.1446C33.7889 73.1454 30.5651 72.9357 27.7727 71.5615C24.9802 70.1873 22.8473 67.7609 21.8424 64.8153C21.3658 63.3675 21.1827 61.8392 21.3038 60.3198C21.425 58.8004 21.8479 57.3204 22.5479 55.9664C23.2478 54.6124 24.2108 53.4116 25.3804 52.4343C26.55 51.4569 27.9028 50.7226 29.3596 50.2742C32.3066 49.2734 35.5303 49.4832 38.3228 50.8574C41.1152 52.2316 43.2481 54.6579 44.2531 57.6035Z" fill="#FCB2B1"/>
<path d="M41.3178 54.5008C40.9184 55.0646 30.5823 48.3461 19.6353 38.0569C8.68838 27.7677 0.0905786 19.4049 0.48993 18.9115C0.889282 18.4182 10.5912 25.9589 21.4207 36.2246C32.2501 46.4903 41.7406 53.9135 41.3178 54.5008Z" fill="#FCB2B1"/>
<path d="M17.074 0.1911C17.7553 0.1911 17.2854 6.6747 12.3758 12.6415C7.46607 18.6083 1.07645 20.4406 0.912012 19.6889C0.747573 18.9372 5.93915 16.3766 10.3085 10.9501C14.6779 5.52363 16.3223 0.0266609 17.074 0.1911Z" fill="#FCB2B1"/>
<path d="M25.4595 8.92848C26.1408 8.92848 25.9763 15.3416 20.7613 20.8151C15.5462 26.2885 9.01562 26.9933 9.01562 26.312C9.01562 25.6308 14.3481 23.9629 18.9055 19.0767C23.4628 14.1905 24.6608 8.78753 25.4595 8.92848Z" fill="#FCB2B1"/>
</svg>
