<svg width="51" height="52" viewBox="0 0 51 52" fill="none" xmlns="http://www.w3.org/2000/svg">
<path d="M12.3654 34.2973C10.5766 35.3709 8.44108 35.7089 6.40816 35.2401C4.37524 34.7714 2.60338 33.5323 1.4654 31.7837C0.920193 30.9191 0.55362 29.954 0.38726 28.9454C0.220899 27.9369 0.25813 26.9052 0.496766 25.9113C0.735401 24.9173 1.17059 23.9812 1.77671 23.1581C2.38284 22.335 3.14764 21.6416 4.02598 21.1187C5.81531 20.0318 7.95821 19.6863 9.99845 20.1558C12.0387 20.6253 13.8151 21.8726 14.9494 23.6323C15.4969 24.4974 15.8647 25.4638 16.0311 26.474C16.1974 27.4841 16.1589 28.5175 15.9179 29.5125C15.6768 30.5075 15.2381 31.4438 14.6278 32.2658C14.0175 33.0878 13.2481 33.7787 12.3654 34.2973Z" fill="#FCB2B1"/>
<path d="M14.0077 31.9689C13.2795 31.7105 15.981 23.9113 21.1726 15.29C26.3641 6.66874 30.757 0.0206922 31.3913 0.302588C32.0255 0.584483 28.7133 8.10169 23.5452 16.7465C18.3771 25.3913 14.7125 32.2508 14.0077 31.9689Z" fill="#FCB2B1"/>
<path d="M50.6783 16.8644C50.6783 17.4987 44.0303 17.0758 37.5702 12.448C34.7765 10.5416 32.565 7.89918 31.1806 4.81335C30.1704 2.46422 30.5463 0.678886 30.8752 0.702378C31.204 0.725869 31.6269 2.0884 32.9189 3.9677C34.609 6.43711 36.7344 8.57834 39.1911 10.2868C44.8995 14.4683 50.9132 16.1362 50.6783 16.8644Z" fill="#FCB2B1"/>
<path d="M31.649 50.8345C29.8633 51.9201 27.724 52.2649 25.6876 51.7953C23.6513 51.3257 21.879 50.0789 20.749 48.3209C20.2044 47.4581 19.8382 46.4949 19.6721 45.4881C19.506 44.4814 19.5435 43.4515 19.7822 42.4595C20.0209 41.4674 20.456 40.5333 21.0619 39.7122C21.6677 38.8912 22.432 38.2 23.3096 37.6794C25.0953 36.5937 27.2346 36.249 29.271 36.7186C31.3074 37.1882 33.0796 38.435 34.2095 40.193C34.7542 41.0558 35.1204 42.019 35.2865 43.0258C35.4526 44.0325 35.4151 45.0624 35.1764 46.0544C34.9377 47.0465 34.5026 47.9806 33.8967 48.8016C33.2909 49.6227 32.5265 50.3139 31.649 50.8345V50.8345Z" fill="#FCB2B1"/>
<path d="M33.2949 48.5328C32.5666 48.2744 35.2681 40.4753 40.4597 31.854C45.6513 23.2327 50.0442 16.5611 50.6784 16.8665C51.3127 17.1719 48.0004 24.6656 42.8323 33.193C37.6642 41.7203 33.9996 48.8147 33.2949 48.5328Z" fill="#FCB2B1"/>
<path d="M48.1653 21.5418C48.1653 22.2465 41.8462 22.2465 35.6445 18.112C29.4428 13.9776 26.9997 8.29268 27.6809 8.05777C28.3622 7.82286 31.5335 12.2627 37.0774 15.8804C42.6214 19.498 48.2828 20.837 48.1653 21.5418Z" fill="#FCB2B1"/>
</svg>
