<svg width="47" height="77" viewBox="0 0 47 77" fill="none" xmlns="http://www.w3.org/2000/svg">
<path d="M46.1874 61.0398C46.6826 62.5556 46.8713 64.1547 46.7427 65.7442C46.6142 67.3336 46.1709 68.8816 45.4386 70.2981C44.7063 71.7146 43.6997 72.9714 42.4772 73.9953C41.2547 75.0192 39.8408 75.7897 38.3178 76.2622C35.2327 77.2689 31.8764 77.0288 28.966 75.5934C26.0556 74.1579 23.8221 71.641 22.743 68.5805C22.2479 67.0647 22.059 65.4656 22.1876 63.8762C22.3161 62.2868 22.7594 60.7388 23.4918 59.3222C24.2241 57.9057 25.2308 56.649 26.4533 55.6251C27.6757 54.6012 29.0897 53.8306 30.6127 53.3582C33.6977 52.3515 37.0541 52.5915 39.9645 54.027C42.8749 55.4624 45.1084 57.9794 46.1874 61.0398V61.0398Z" fill="#FCB2B1"/>
<path d="M43.2039 57.7734C42.7811 58.3841 31.9515 51.3602 20.5113 40.5777C9.071 29.7952 0.0504211 21.0565 0.473264 20.5397C0.896107 20.0229 11.0444 27.8924 22.3672 38.6515C33.69 49.4105 43.6268 57.1861 43.2039 57.7734Z" fill="#FCB2B1"/>
<path d="M17.8353 0.973141C18.54 0.973141 18.0467 7.76213 12.8551 13.9873C7.66356 20.2125 1.10941 22.1623 0.874496 21.481C0.639583 20.7998 6.11308 18.0278 10.7409 12.3194C15.3686 6.61105 17.0366 0.808702 17.8353 0.973141Z" fill="#FCB2B1"/>
<path d="M26.5495 10.1345C27.2777 10.1345 27.0898 16.8295 21.5693 22.5614C16.0489 28.2932 9.2129 29.0215 9.23639 28.2932C9.25988 27.565 14.8039 25.9441 19.5726 20.7525C24.3413 15.561 25.7742 9.87607 26.5495 10.1345Z" fill="#FCB2B1"/>
</svg>
